<?xml version="1.0" ?>
<svg xmlns="http://www.w3.org/2000/svg" xmlns:xlink="http://www.w3.org/1999/xlink" version="1.1" viewBox="0 0 512 512"
    style="enable-background:new 0 0 512 512;fill:white;" xml:space="preserve">
    <g id="_x32_8_x2C__maracas_x2C__maraca_x2C__latin_x2C__music_and_multimedia_x2C__musical_instrument_x2C__orchestra">
        <g>
            <path
                d="M471.706,39.669c-62.37-62.37-180.763-42.227-226.463,36.944c-18.873,32.611-23.377,71.261-13.479,106.762    c-12.105,17.254-15.487,38.664-10.259,58.232C197.683,265.429,87.211,375.902,73.261,389.852    c-57.648-9.386-92.983,60.779-52.134,101.631c40.616,40.615,111.063,5.745,101.631-52.133    c73.393-73.394,132.34-132.34,148.227-148.228c20.017,5.344,41.863,1.609,59.134-10.917    c60.538,15.841,127.074-10.061,159.805-72.274C521.691,147.39,510.898,78.863,471.706,39.669z M316.164,38.405l64.485,64.485    l-76.397,12.633L316.164,38.405z M293.961,51.136l-8.571,55.49l-21.784-21.784C271.352,71.966,281.494,60.688,293.961,51.136z     M144.991,388.831l-21.213-21.213l14.142-14.142l21.213,21.213L144.991,388.831z M173.275,360.547l-21.213-21.213l78.106-78.106    c5.39,8.404,12.468,15.603,21.209,21.217L173.275,360.547z M241.408,208.32c13.658,27.147,36.134,49.319,63.532,62.593    C265.703,283.971,229.083,246.701,241.408,208.32z M248.786,169.017l93.576,93.576    C295.383,253.321,258.046,216.051,248.786,169.017z M376.732,197.967l-63.635-63.635l76.243-12.607L376.732,197.967z     M426.533,247.769l-22.095-22.095l56.105-8.664C451.283,229.224,439.89,239.735,426.533,247.769z M395.541,206.811l12.633-76.397    l64.487,64.487L395.541,206.811z M401.889,25.133c43.87,8.46,75.605,39.083,84.338,84.338L401.889,25.133z" />
        </g>
    </g>
    <g id="Layer_1" />
</svg>