<?xml version="1.0" ?>
<svg xmlns="http://www.w3.org/2000/svg" xmlns:xlink="http://www.w3.org/1999/xlink" version="1.1" viewBox="0 0 512 512"
    style="enable-background:new 0 0 512 512;fill:white;" xml:space="preserve">
    <g
        id="_x31_0_x2C__cymbal_x2C__music_and_multimedia_x2C__percussion_instrument_x2C__musical_instrument_x2C__orchestra_x2C__cymbals">
        <g>
            <path
                d="M450.143,181c8.222,0,12.939-9.413,8-16l-30-40c-1.889-2.518-4.853-4-8-4h-80c0-22.056-17.944-40-40-40h-10V11    c0-5.523-4.478-10-10-10h-50c-5.522,0-10,4.477-10,10v70h-10c-22.056,0-40,17.944-40,40h-80c-3.147,0-6.111,1.482-8,4l-30,40    c-4.933,6.578-0.232,16,8,16h160v20h-160c-8.222,0-12.939,9.413-8,16l30,40c1.889,2.518,4.853,4,8,4h80c0,22.056,17.944,40,40,40    h10v100h-10c-5.522,0-10,4.477-10,10v40c0,5.523,4.478,10,10,10h10v40c0,5.523,4.478,10,10,10h50c5.522,0,10-4.477,10-10v-40h10    c5.522,0,10-4.477,10-10v-10h20v5c0,5.523,4.478,10,10,10s10-4.477,10-10v-30c0-5.523-4.478-10-10-10s-10,4.477-10,10v5h-20v-10    c0-5.523-4.478-10-10-10h-10V301h10c22.056,0,40-17.944,40-40h80c3.147,0,6.111-1.482,8-4l30-40c4.933-6.578,0.232-16-8-16h-160    v-20H450.143z M240.143,21h30v60h-30V21z M270.143,491h-30v-30h30V491z M290.143,441h-70v-20h70V441z M240.143,401V301h30v100    H240.143z M320.143,261c0,11.028-8.972,20-20,20c-23.563,0-75.092,0-90,0c-11.028,0-20-8.972-20-20H320.143z M240.143,201v-20h30    v20H240.143z M190.143,121c0-11.028,8.972-20,20-20c23.563,0,75.092,0,90,0c11.028,0,20,8.972,20,20H190.143z" />
            <path
                d="M403.071,98.071c3.906,3.905,10.236,3.905,14.143,0c3.905-3.905,3.905-10.237,0-14.142l-28.285-28.284    c-3.906-3.905-10.236-3.905-14.143,0c-3.905,3.905-3.905,10.237,0,14.142L403.071,98.071z" />
            <path
                d="M485.498,55.645c-3.906-3.905-10.236-3.905-14.143,0l-28.284,28.284c-3.905,3.905-3.905,10.237,0,14.143    c3.906,3.905,10.237,3.905,14.143,0l28.284-28.284C489.403,65.882,489.403,59.55,485.498,55.645z" />
            <path
                d="M68.929,98.071c3.905-3.905,3.905-10.237,0-14.143L40.645,55.645c-3.906-3.905-10.236-3.905-14.143,0    c-3.905,3.905-3.905,10.237,0,14.143l28.284,28.284C58.692,101.977,65.023,101.976,68.929,98.071z" />
            <path
                d="M108.929,98.071l28.285-28.284c3.905-3.905,3.905-10.237,0-14.142c-3.905-3.905-10.235-3.905-14.143,0L94.786,83.929    c-3.905,3.905-3.905,10.237,0,14.142C98.693,101.977,105.023,101.975,108.929,98.071z" />
        </g>
    </g>
    <g id="Layer_1" />
</svg>