<?xml version="1.0" ?>
<svg xmlns="http://www.w3.org/2000/svg" xmlns:xlink="http://www.w3.org/1999/xlink" version="1.1" viewBox="0 0 512 512"
    style="enable-background:new 0 0 512 512;fill:white;" xml:space="preserve">
    <g
        id="_x32_3_x2C__drumsticks_x2C__music_and_multimedia_x2C__percussion_instrument_x2C__musical_instrument_x2C__orchestra_x2C__music">
        <g>
            <path
                d="M304.936,255.119l138.193-143.243c15.28,1.991,30.908-3.194,41.925-14.21c18.868-18.868,34.705-64.288,14.141-84.852    c-20.7-20.698-66.215-4.498-84.853,14.14c-11.016,11.016-16.204,26.643-14.21,41.925L256.014,207.919    C215.248,168.59,167.6,122.62,111.895,68.877c1.996-15.276-3.192-30.903-14.212-41.923C80.687,9.958,34.417-8.775,12.83,12.812    C-8.756,34.398,9.977,80.669,26.972,97.665c11.021,11.021,26.648,16.212,41.923,14.211    c53.359,55.306,99.058,102.674,138.199,143.244C9.655,445.607,14.974,440.473,14.836,440.611    c-15.642,15.629-15.638,40.943-0.006,56.562c15.629,15.642,40.941,15.641,56.568,0c0.139-0.139-4.692,4.865,184.612-191.351    c189.625,196.547,184.517,191.254,184.62,191.359c15.596,15.596,40.974,15.595,56.569,0c15.596-15.596,15.596-40.973,0-56.569    C497.111,440.523,502.751,445.965,304.936,255.119z M57.193,483.092c-7.806,7.754-20.415,7.753-28.222-0.062    c-7.801-7.795-7.814-20.405-0.055-28.216l14.454-13.945l27.768,27.768L57.193,483.092z M85.027,454.241L57.766,426.98    l28.791-27.777l26.247,26.247L85.027,454.241z M126.693,411.054l-25.74-25.74l28.791-27.777l24.726,24.726L126.693,411.054z     M168.359,367.867l-24.219-24.219l76.841-74.134c7.285,7.551,14.323,14.846,21.133,21.905L168.359,367.867z M270.416,221.815    L417.907,79.522c2.591-2.5,3.639-6.2,2.741-9.688c-2.637-10.256,0.365-21.268,7.837-28.739    c6.656-6.656,19.021-13.154,30.77-16.169c11.843-3.04,21.488-2.281,25.798,2.03c4.312,4.311,5.07,13.955,2.03,25.797    c-3.016,11.748-9.514,24.114-16.171,30.77c-7.471,7.471-18.486,10.473-28.737,7.836c-3.489-0.896-7.188,0.15-9.688,2.742    L290.543,241.232C284.04,234.958,277.335,228.49,270.416,221.815z M385.33,411.058l-27.777-28.791l24.733-24.733l28.792,27.777    L385.33,411.058z M483.056,483.037c-7.777,7.779-20.425,7.799-28.228,0.057l-13.944-14.453l27.775-27.775l14.452,13.943    C490.855,462.611,490.837,475.257,483.056,483.037z" />
        </g>
    </g>
    <g id="Layer_1" />
</svg>