<?xml version="1.0" ?>
<svg xmlns="http://www.w3.org/2000/svg" xmlns:xlink="http://www.w3.org/1999/xlink" version="1.1" viewBox="0 0 512 512"
    style="enable-background:new 0 0 512 512;fill:white;" xml:space="preserve">
    <g
        id="_x32_2_x2C__drum_x2C__orchestra_x2C__music_x2C__percussion_instrument_x2C__musical_instrument_x2C__music_and_multimedia">
        <g>
            <path
                d="M341.003,60.997h-170c-93.738,0-170,76.262-170,170c0,47.255,19.427,91.826,53.64,123.934l-44.85,44.85    c-11.729,11.729-11.727,30.7,0,42.426c11.728,11.729,30.699,11.727,42.427,0l54.009-54.009    c20.536,8.486,42.289,12.798,64.775,12.798h170c93.738,0,170-76.262,170-170S434.742,60.997,341.003,60.997z M291.003,80.997    c44.326,0,84.216,19.332,111.7,50H308.48c-15.11-20.716-34.775-37.863-57.485-50H291.003z M38.077,428.065    c-3.912,3.912-10.232,3.91-14.142,0c-3.912-3.912-3.911-10.232,0-14.142l131.062-131.062c2.524-2.524,3.512-6.202,2.591-9.65    c-2.758-10.333,0.218-21.443,7.769-28.994c11.724-11.724,30.703-11.723,42.426,0c11.725,11.724,11.724,30.703,0,42.426    c-7.55,7.551-18.659,10.527-28.993,7.769c-3.447-0.919-7.126,0.067-9.65,2.591C154.034,312.108,51.924,414.218,38.077,428.065z     M171.003,340.997c-5.508,0-10.972-0.412-16.36-1.214l24.853-24.853c15.448,2.183,31.268-2.983,42.427-14.143    c19.542-19.542,19.54-51.171,0-70.711c-19.542-19.542-51.171-19.539-70.711,0c-11.161,11.161-16.326,26.985-14.143,42.428    l-39.966,39.966c-23.043-20.839-36.101-50.068-36.101-81.473c0-60.654,49.346-110,110-110s110,49.346,110,110    S231.658,340.997,171.003,340.997z M291.003,380.997h-40.011c22.709-12.136,42.376-29.283,57.488-50h94.223    C375.219,361.665,335.329,380.997,291.003,380.997z M417.833,310.997h-96.795c11.249-21.04,18.205-44.75,19.665-70h99.958    C438.968,266.606,430.822,290.477,417.833,310.997z M340.704,220.997c-1.461-25.248-8.416-48.958-19.666-70h96.795    c12.989,20.52,21.135,44.391,22.829,70H340.704z" />
            <path
                d="M171.003,140.997c-5.523,0-10,4.477-10,10s4.477,10,10,10c38.598,0,70,31.402,70,70c0,5.523,4.477,10,10,10    c5.523,0,10-4.477,10-10C261.003,181.371,220.629,140.997,171.003,140.997z" />
        </g>
    </g>
    <g id="Layer_1" />
</svg>